<svg width="173" height="32" viewBox="0 0 173 32" fill="none" xmlns="http://www.w3.org/2000/svg">
<path d="M39.4125 30.5969C39.1778 30.5969 39.0102 30.5284 38.8425 30.3573C38.6748 30.1862 38.6078 30.0151 38.6078 29.7755V7.22228C38.6078 6.98272 38.6748 6.77738 38.8425 6.60627C38.9766 6.43515 39.1778 6.3667 39.4461 6.3667H49.2706C51.9196 6.3667 53.8979 6.9485 55.2056 8.14632C56.5133 9.34414 57.1504 10.9526 57.1504 13.006C57.1504 14.2039 56.8486 15.2306 56.2786 16.0861C55.7086 16.9417 55.038 17.5235 54.2668 17.9C55.2056 18.3449 56.0104 19.0636 56.6475 20.0561C57.2845 21.0485 57.6199 22.1779 57.6199 23.4442C57.6199 25.6003 56.9157 27.3114 55.5074 28.6461C54.0991 29.9466 52.1208 30.6311 49.5389 30.6311H39.4125V30.5969ZM48.6336 16.2915C49.8071 16.2915 50.7125 16.0177 51.316 15.4359C51.9196 14.8541 52.2214 14.1012 52.2214 13.1087C52.2214 12.1162 51.9196 11.3633 51.316 10.8157C50.7125 10.2682 49.8071 9.99438 48.6336 9.99438H43.3021V16.2915H48.6336ZM48.9689 26.935C50.1424 26.935 51.0478 26.5927 51.7184 25.9425C52.389 25.2923 52.6908 24.4367 52.6908 23.4442C52.6908 22.4175 52.3555 21.5619 51.7184 20.9116C51.0478 20.2614 50.1424 19.9192 48.9689 19.9192H43.3021V26.935H48.9689Z" fill="#151B33"/>
<path d="M65.332 30.9392C64.192 30.9392 63.119 30.6996 62.1466 30.2205C61.1742 29.7413 60.4365 29.0911 59.8665 28.304C59.2964 27.4826 59.0282 26.5928 59.0282 25.6345C59.0282 24.0603 59.6653 22.794 60.9059 21.8357C62.1466 20.8775 63.8567 20.193 66.0362 19.8508L70.697 19.1663V18.4476C70.697 17.4209 70.4623 16.668 69.9593 16.1546C69.4563 15.6413 68.6516 15.4017 67.5451 15.4017C66.8074 15.4017 66.2038 15.5386 65.7344 15.8466C65.265 16.1204 64.8961 16.4284 64.6279 16.7022C64.3596 17.0102 64.192 17.2156 64.0914 17.284C63.9908 17.5578 63.8231 17.6947 63.5884 17.6947H60.973C60.7718 17.6947 60.6042 17.6262 60.4365 17.4894C60.3024 17.3525 60.2018 17.1813 60.2018 16.9418C60.2353 16.36 60.5036 15.7097 61.0401 14.9568C61.5766 14.2039 62.3813 13.5879 63.4878 13.0403C64.5943 12.4927 65.9691 12.2532 67.5451 12.2532C70.2275 12.2532 72.1723 12.8692 73.3795 14.1012C74.5866 15.3333 75.2237 16.9418 75.2237 18.9267V29.8098C75.2237 30.0493 75.1566 30.2205 74.9889 30.3916C74.8548 30.5627 74.6536 30.6311 74.3854 30.6311H71.6358C71.4011 30.6311 71.2335 30.5627 71.0658 30.3916C70.8982 30.2205 70.8311 30.0493 70.8311 29.8098V28.4751C70.3281 29.228 69.624 29.8098 68.7186 30.2889C67.8133 30.6996 66.6733 30.9392 65.332 30.9392ZM66.4721 27.6537C67.7127 27.6537 68.7186 27.243 69.5234 26.4217C70.3281 25.6003 70.697 24.3683 70.697 22.794V22.0753L67.3103 22.6229C66.0026 22.8282 64.9967 23.1704 64.3261 23.6153C63.6555 24.0602 63.3202 24.642 63.3202 25.3265C63.3202 26.0794 63.6219 26.627 64.2255 27.0719C64.8961 27.4484 65.6338 27.6537 66.4721 27.6537Z" fill="#151B33"/>
<path d="M79.1802 30.5969C78.9455 30.5969 78.7779 30.5284 78.6102 30.3573C78.4426 30.1862 78.3755 30.0151 78.3755 29.7755V6.84581C78.3755 6.60625 78.4426 6.40091 78.6102 6.2298C78.7779 6.0929 78.9455 5.99023 79.1802 5.99023H81.9968C82.2316 5.99023 82.4327 6.05868 82.6004 6.2298C82.7345 6.36669 82.8351 6.57203 82.8351 6.84581V29.7755C82.8351 30.0151 82.768 30.1862 82.6004 30.3573C82.4663 30.5284 82.2651 30.5969 81.9968 30.5969H79.1802Z" fill="#151B33"/>
<path d="M86.5906 30.5969C86.3559 30.5969 86.1883 30.5284 86.0206 30.3573C85.853 30.1862 85.7859 30.0151 85.7859 29.7755V6.84581C85.7859 6.60625 85.853 6.40091 86.0206 6.2298C86.1883 6.0929 86.3559 5.99023 86.5906 5.99023H89.3402C89.5749 5.99023 89.7761 6.05868 89.9437 6.2298C90.0779 6.36669 90.1784 6.57203 90.1784 6.84581V18.6871L95.8787 13.1771C95.9458 13.1429 96.0464 13.0403 96.214 12.9034C96.3481 12.8007 96.4823 12.698 96.6164 12.6638C96.7505 12.6296 96.9182 12.5954 97.1194 12.5954H100.271C100.506 12.5954 100.674 12.6638 100.808 12.8007C100.942 12.9376 101.009 13.1087 101.009 13.3483C101.009 13.5536 100.908 13.759 100.674 13.9643L93.6992 20.6379L101.545 29.2279C101.78 29.4675 101.881 29.6386 101.881 29.8097C101.881 30.0493 101.814 30.2204 101.646 30.3573C101.512 30.4942 101.311 30.5626 101.11 30.5626H97.8906C97.5888 30.5626 97.3541 30.5284 97.1864 30.4258C97.0523 30.3573 96.8511 30.1862 96.6164 29.9466L90.1449 22.9993V29.7071C90.1449 29.9466 90.0779 30.1177 89.9102 30.2889C89.7761 30.46 89.5749 30.5284 89.3066 30.5284H86.5906V30.5969Z" fill="#151B33"/>
<path d="M108.621 30.9392C107.481 30.9392 106.408 30.6996 105.435 30.2205C104.463 29.7413 103.725 29.0911 103.155 28.304C102.585 27.4826 102.317 26.5928 102.317 25.6345C102.317 24.0603 102.954 22.794 104.194 21.8357C105.435 20.8775 107.145 20.193 109.325 19.8508L113.986 19.1663V18.4476C113.986 17.4209 113.751 16.668 113.248 16.1546C112.745 15.6413 111.94 15.4017 110.834 15.4017C110.096 15.4017 109.492 15.5386 109.023 15.8466C108.554 16.1204 108.185 16.4284 107.916 16.7022C107.648 17.0102 107.481 17.2156 107.38 17.284C107.279 17.5578 107.112 17.6947 106.877 17.6947H104.262C104.06 17.6947 103.893 17.6262 103.725 17.4894C103.591 17.3525 103.49 17.1813 103.49 16.9418C103.524 16.36 103.792 15.7097 104.329 14.9568C104.865 14.2039 105.67 13.5879 106.776 13.0403C107.883 12.4927 109.258 12.2532 110.834 12.2532C113.516 12.2532 115.461 12.8692 116.668 14.1012C117.875 15.3333 118.512 16.9418 118.512 18.9267V29.8098C118.512 30.0493 118.445 30.2205 118.278 30.3916C118.143 30.5627 117.942 30.6311 117.674 30.6311H114.924C114.69 30.6311 114.522 30.5627 114.354 30.3916C114.187 30.2205 114.12 30.0493 114.12 29.8098V28.4751C113.617 29.228 112.913 29.8098 112.007 30.2889C111.102 30.6996 109.962 30.9392 108.621 30.9392ZM109.761 27.6537C111.001 27.6537 112.007 27.243 112.812 26.4217C113.617 25.6003 113.986 24.3683 113.986 22.794V22.0753L110.599 22.6229C109.291 22.8282 108.285 23.1704 107.615 23.6153C106.944 24.0602 106.609 24.642 106.609 25.3265C106.609 26.0794 106.911 26.627 107.514 27.0719C108.185 27.4484 108.922 27.6537 109.761 27.6537Z" fill="#151B33"/>
<path d="M122.1 30.5967C121.865 30.5967 121.698 30.5283 121.53 30.3572C121.362 30.186 121.295 30.0149 121.295 29.7754V13.4166C121.295 13.177 121.362 13.0059 121.53 12.8348C121.698 12.6637 121.865 12.5952 122.1 12.5952H124.883C125.118 12.5952 125.285 12.6637 125.453 12.8348C125.621 13.0059 125.688 13.177 125.688 13.4166V14.8197C127.029 13.0743 128.907 12.2188 131.354 12.2188C133.433 12.2188 135.076 12.9032 136.317 14.3064C137.524 15.7095 138.161 17.5918 138.161 19.9875V29.7069C138.161 29.9465 138.094 30.1176 137.927 30.2887C137.792 30.4598 137.591 30.5283 137.323 30.5283H134.339C134.104 30.5283 133.936 30.4598 133.769 30.2887C133.601 30.1176 133.534 29.9465 133.534 29.7069V20.1928C133.534 18.8239 133.199 17.7629 132.562 17.01C131.924 16.2571 130.986 15.8807 129.779 15.8807C128.571 15.8807 127.633 16.2571 126.962 17.01C126.258 17.7629 125.922 18.8239 125.922 20.1586V29.6727C125.922 29.9123 125.855 30.0834 125.688 30.2545C125.554 30.4256 125.352 30.4941 125.084 30.4941H122.1V30.5967Z" fill="#151B33"/>
<path d="M140.81 30.5967C140.576 30.5967 140.408 30.5283 140.24 30.3572C140.073 30.186 140.005 30.0149 140.005 29.7754V27.7904C140.005 27.4824 140.173 27.1059 140.475 26.6953L149.159 16.1887H141.078C140.844 16.1887 140.676 16.1202 140.508 15.9491C140.341 15.778 140.274 15.6069 140.274 15.3673V13.4166C140.274 13.177 140.341 13.0059 140.508 12.8348C140.676 12.6637 140.844 12.5952 141.078 12.5952H153.921C154.156 12.5952 154.357 12.6637 154.524 12.8348C154.659 12.9717 154.759 13.177 154.759 13.4508V15.5726C154.759 15.8807 154.591 16.2571 154.29 16.5993L145.806 27.0375H154.659C154.893 27.0375 155.094 27.1059 155.262 27.2771C155.396 27.414 155.497 27.6193 155.497 27.8931V29.8438C155.497 30.0834 155.43 30.2545 155.262 30.4256C155.128 30.5967 154.927 30.6652 154.659 30.6652H140.81V30.5967Z" fill="#151B33"/>
<path d="M163.108 30.9392C161.968 30.9392 160.895 30.6996 159.923 30.2205C158.951 29.7413 158.213 29.0911 157.643 28.304C157.073 27.4826 156.805 26.5928 156.805 25.6345C156.805 24.0603 157.442 22.794 158.682 21.8357C159.923 20.8775 161.633 20.193 163.813 19.8508L168.473 19.1663V18.4476C168.473 17.4209 168.239 16.668 167.736 16.1546C167.233 15.6413 166.428 15.4017 165.321 15.4017C164.584 15.4017 163.98 15.5386 163.511 15.8466C163.041 16.1204 162.672 16.4284 162.404 16.7022C162.136 17.0102 161.968 17.2156 161.868 17.284C161.767 17.5578 161.599 17.6947 161.365 17.6947H158.749C158.548 17.6947 158.381 17.6262 158.213 17.4894C158.079 17.3525 157.978 17.1813 157.978 16.9418C158.012 16.36 158.28 15.7097 158.816 14.9568C159.353 14.2039 160.158 13.5879 161.264 13.0403C162.371 12.4927 163.745 12.2532 165.321 12.2532C168.004 12.2532 169.949 12.8692 171.156 14.1012C172.363 15.3333 173 16.9418 173 18.9267V29.8098C173 30.0493 172.933 30.2205 172.765 30.3916C172.631 30.5627 172.43 30.6311 172.162 30.6311H169.412C169.177 30.6311 169.01 30.5627 168.842 30.3916C168.675 30.2205 168.607 30.0493 168.607 29.8098V28.4751C168.105 29.228 167.4 29.8098 166.495 30.2889C165.59 30.6996 164.45 30.9392 163.108 30.9392ZM164.248 27.6537C165.489 27.6537 166.495 27.243 167.3 26.4217C168.105 25.6003 168.473 24.3683 168.473 22.794V22.0753L165.087 22.6229C163.779 22.8282 162.773 23.1704 162.102 23.6153C161.432 24.0602 161.097 24.642 161.097 25.3265C161.097 26.0794 161.398 26.627 162.002 27.0719C162.639 27.4484 163.377 27.6537 164.248 27.6537Z" fill="#151B33"/>
<path d="M5.81454 30.1519C5.81454 31.1786 5.0098 32 4.00387 32C3.16559 32 2.46144 31.4182 2.26025 30.6311C-1.79699 17.5235 0.114272 9.00187 4.00387 4.38171C5.81454 2.25986 8.02758 0.925145 10.3077 0.343347C12.6213 -0.238451 15.002 -0.0673346 17.1145 0.754027C20.7358 2.19141 23.5524 5.57953 23.7201 10.5419C23.7201 10.7473 23.7201 10.9526 23.7201 11.1579C27.8779 12.1162 30.5269 14.7856 31.734 17.8657C32.3375 19.4058 32.5387 21.0485 32.4046 22.6912C32.2705 24.334 31.734 25.9082 30.8287 27.3114C29.0515 30.015 25.9331 31.9658 21.44 31.9658H10.0059C8.99998 31.9658 8.19524 31.1444 8.19524 30.1177C8.19524 29.399 8.59761 28.7488 9.20117 28.475C12.7219 26.3874 15.5385 23.6495 17.4498 20.5352C18.6234 18.5844 19.4616 16.531 19.864 14.2723C20.0652 13.0745 20.1658 11.8766 20.1323 10.6446C19.9981 7.35914 18.1875 5.1004 15.8403 4.17637C14.432 3.62879 12.789 3.4919 11.213 3.90258C9.60354 4.31326 8.06111 5.23729 6.75341 6.74313C4.27211 9.68634 2.83028 14.7514 4.0374 22.3832C5.24451 19.8507 6.95459 17.5577 9.03351 15.6754C11.8501 13.0745 15.3373 11.2948 18.9922 10.8842C19.0257 12.1846 18.8916 13.4167 18.6234 14.6487C16.008 15.1279 13.5267 16.4968 11.4142 18.4133C8.73173 20.8432 6.75341 24.1286 6.08279 27.551C5.8816 28.4408 5.81454 29.2964 5.81454 30.1519ZM23.4183 14.8883C22.9489 17.5919 21.9429 20.1245 20.5011 22.4859C19.2269 24.6077 17.5839 26.5585 15.6391 28.2696H21.44C24.5584 28.2696 26.6708 27.0034 27.8109 25.258C28.3809 24.3682 28.7162 23.3757 28.8168 22.349C28.9174 21.2881 28.7497 20.2271 28.3809 19.2004C27.6432 17.3182 25.9667 15.6412 23.4183 14.8883Z" fill="#D12E3F"/>
</svg>
