<svg xmlns="http://www.w3.org/2000/svg" viewBox="0 0 512 512" width="512" height="512">
  <rect width="512" height="512" rx="0" fill="#0B0B0A"></rect>
  <g transform="translate(90.68, 328.01) scale(0.7102) skewX(-10)">
    <path d="M138-206.40Q157.20-206.40 172.20-197.55Q187.20-188.70 195.60-173.25Q204-157.80 204-138.60L204-138.60L204-134.70Q204-115.50 195.60-99.90Q187.20-84.30 172.20-75.45Q157.20-66.60 138-66.60L138-66.60L88.50-66.60L88.50 0L22.20 0L22.20-206.40L138-206.40ZM88.50-157.50L88.50-114.90L115.80-114.90Q126.30-114.90 131.55-120.30Q136.80-125.70 136.80-135L136.80-135L136.80-137.40Q136.80-147 131.55-152.25Q126.30-157.50 115.80-157.50L115.80-157.50L88.50-157.50Z" fill="#FFFFFF"></path>
    <path transform="translate(209,0)" d="M96.30-162Q132.60-162 155.40-149.85Q178.20-137.70 178.20-110.40L178.20-110.40L178.20-48.60Q178.20-43.50 180.60-40.20Q183-36.90 187.80-36.90L187.80-36.90L198.60-36.90L198.60-2.40Q197.70-1.80 193.95-0.45Q190.20 0.90 183.30 2.25Q176.40 3.60 167.40 3.60L167.40 3.60Q150 3.60 138.75-1.65Q127.50-6.90 123.30-16.20L123.30-16.20Q111.90-7.20 97.80-1.80Q83.70 3.60 64.80 3.60L64.80 3.60Q9 3.60 9-40.80L9-40.80Q9-63.90 21.45-76.05Q33.90-88.20 57.30-92.70Q80.70-97.20 118.50-97.20L118.50-97.20L118.50-105Q118.50-114.30 112.05-119.10Q105.60-123.90 95.40-123.90L95.40-123.90Q86.10-123.90 79.35-120.60Q72.60-117.30 72.60-110.10L72.60-110.10L72.60-108.90L13.80-108.90Q13.50-110.40 13.50-113.10L13.50-113.10Q13.50-135.60 34.95-148.80Q56.40-162 96.30-162L96.30-162ZM118.50-69Q93-69 80.85-63.45Q68.70-57.90 68.70-48.60L68.70-48.60Q68.70-33.60 89.10-33.60L89.10-33.60Q100.80-33.60 109.65-39.90Q118.50-46.20 118.50-55.50L118.50-55.50L118.50-69Z" fill="#C9AE7C"></path>
  </g>
</svg>
