<svg xmlns="http://www.w3.org/2000/svg" viewBox="0 0 1167 302" width="1167" height="302" fill="none">
  <g transform="translate(40, 180) skewX(-10)" fill="#FFFFFF">
    <path d="M92-137.60Q104.80-137.60 114.80-131.70Q124.80-125.80 130.40-115.50Q136-105.20 136-92.40L136-92.40L136-89.80Q136-77 130.40-66.60Q124.80-56.20 114.80-50.30Q104.80-44.40 92-44.40L92-44.40L59-44.40L59 0L14.80 0L14.80-137.60L92-137.60ZM59-105L59-76.60L77.20-76.60Q84.20-76.60 87.70-80.20Q91.20-83.80 91.20-90L91.20-90L91.20-91.60Q91.20-98 87.70-101.50Q84.20-105 77.20-105L77.20-105L59-105ZM286.20-95.40Q286.20-82.80 279.40-72.60Q272.60-62.40 259.60-57.60L259.60-57.60L290.20 0L240.60 0L216.20-50.20L199.80-50.20L199.80 0L155.60 0L155.60-137.60L239.80-137.60Q254.60-137.60 265.10-131.90Q275.60-126.20 280.90-116.50Q286.20-106.80 286.20-95.40L286.20-95.40ZM241.20-93.60Q241.20-99 237.60-102.60Q234-106.20 228.80-106.20L228.80-106.20L199.80-106.20L199.80-80.80L228.80-80.80Q234-80.80 237.60-84.50Q241.20-88.20 241.20-93.60L241.20-93.60ZM376.00-140Q411.60-140 431.00-121.80Q450.40-103.60 450.40-68.80L450.40-68.80Q450.40-34 431.00-15.80Q411.60 2.40 376.00 2.40L376.00 2.40Q340.40 2.40 321.10-15.70Q301.80-33.80 301.80-68.80L301.80-68.80Q301.80-103.80 321.10-121.90Q340.40-140 376.00-140L376.00-140ZM376.00-107Q361.80-107 354.40-98.40Q347.00-89.80 347.00-75.20L347.00-75.20L347.00-62.40Q347.00-47.80 354.40-39.20Q361.80-30.60 376.00-30.60L376.00-30.60Q390.20-30.60 397.70-39.20Q405.20-47.80 405.20-62.40L405.20-62.40L405.20-75.20Q405.20-89.80 397.70-98.40Q390.20-107 376.00-107L376.00-107ZM530.20-137.60Q602.40-137.60 602.40-68.80L602.40-68.80Q602.40 0 530.20 0L530.20 0L470.60 0L470.60-137.60L530.20-137.60ZM514.80-104.60L514.80-33L529.40-33Q557.20-33 557.20-62.80L557.20-62.80L557.20-74.80Q557.20-104.60 529.40-104.60L529.40-104.60L514.80-104.60ZM759.60-55.40Q759.60-27.20 741.80-12.40Q724.00 2.40 691.20 2.40L691.20 2.40Q658.40 2.40 640.50-12.40Q622.60-27.20 622.60-55.40L622.60-55.40L622.60-137.60L666.80-137.60L666.80-56Q666.80-44.40 673.00-37.50Q679.20-30.60 691.00-30.60L691.00-30.60Q702.80-30.60 709.10-37.60Q715.40-44.60 715.40-56L715.40-56L715.40-137.60L759.60-137.60L759.60-55.40ZM851.20-140Q881.80-140 899.60-124.70Q917.40-109.40 917.40-81L917.40-81L875.20-81Q875.20-93 868.90-100Q862.60-107 851.00-107L851.00-107Q837.60-107 831.30-98.60Q825.00-90.20 825.00-75.20L825.00-75.20L825.00-62.40Q825.00-47.60 831.30-39.10Q837.60-30.60 850.60-30.60L850.60-30.60Q863.40-30.60 870.00-37.20Q876.60-43.80 876.60-55.80L876.60-55.80L917.40-55.80Q917.40-27.60 900.10-12.60Q882.80 2.40 851.20 2.40L851.20 2.40Q816.00 2.40 797.90-15.60Q779.80-33.60 779.80-68.80L779.80-68.80Q779.80-104 797.90-122Q816.00-140 851.20-140L851.20-140ZM1061.80-102.40L1016.80-102.40L1016.80 0L972.60 0L972.60-102.40L927.40-102.40L927.40-137.60L1061.80-137.60L1061.80-102.40Z"></path>
  </g>
  <g fill="#C9AE7C">
    <rect x="54.8" y="210.0" width="1025.0" height="7" rx="3.5"></rect>
    <circle cx="1093.8" cy="213.5" r="8"></circle>
  </g>
  <g transform="translate(54.8, 281.4)" fill="#FFFFFF">
    <path d="M41.70 0L29.55 0L25.10-20.95L24.90-20.95L20.45 0L8.30 0L0.25-34.40L11.75-34.40L15.70-14.90L15.90-14.90L19.80-34.40L30.70-34.40L34.85-14.90L35.05-14.90L38.75-34.40L49.75-34.40L41.70 0ZM80.25 0L69.20 0L69.20-34.40L80.25-34.40L80.25 0ZM134.20-25.60L122.95-25.60L122.95 0L111.90 0L111.90-25.60L100.60-25.60L100.60-34.40L134.20-34.40L134.20-25.60ZM188.50 0L177.45 0L177.45-13.05L165.30-13.05L165.30 0L154.25 0L154.25-34.40L165.30-34.40L165.30-21.85L177.45-21.85L177.45-34.40L188.50-34.40L188.50 0ZM277.30 0L265.60 0L264.15-4.85L252.10-4.85L250.65 0L239.35 0L251.90-34.40L264.75-34.40L277.30 0ZM258.05-24.80L254.40-12.55L261.85-12.55L258.25-24.80L258.05-24.80ZM330.70 0L321.05 0L306.60-16.70L306.60 0L296.45 0L296.45-34.40L306.10-34.40L320.55-17.45L320.55-34.40L330.70-34.40L330.70 0ZM368-34.40Q386.05-34.40 386.05-17.20L386.05-17.20Q386.05 0 368 0L368 0L353.10 0L353.10-34.40L368-34.40ZM364.15-26.15L364.15-8.25L367.80-8.25Q374.75-8.25 374.75-15.70L374.75-15.70L374.75-18.70Q374.75-26.15 367.80-26.15L367.80-26.15L364.15-26.15ZM439.65-23.85Q439.65-20.70 437.95-18.15Q436.25-15.60 433.00-14.40L433.00-14.40L440.65 0L428.25 0L422.15-12.55L418.05-12.55L418.05 0L407.00 0L407.00-34.40L428.05-34.40Q431.75-34.40 434.37-32.98Q437.00-31.55 438.32-29.13Q439.65-26.70 439.65-23.85L439.65-23.85ZM428.40-23.40Q428.40-24.75 427.50-25.65Q426.60-26.55 425.30-26.55L425.30-26.55L418.05-26.55L418.05-20.20L425.30-20.20Q426.60-20.20 427.50-21.13Q428.40-22.05 428.40-23.40L428.40-23.40ZM460.90 0L460.90-34.40L490.65-34.40L490.65-26.15L471.95-26.15L471.95-21.40L487.95-21.40L487.95-13.50L471.95-13.50L471.95-8.25L491.00-8.25L491.00 0L460.90 0ZM550 0L537.85 0L533.40-20.95L533.20-20.95L528.75 0L516.60 0L508.55-34.40L520.05-34.40L524-14.90L524.20-14.90L528.10-34.40L539-34.40L543.15-14.90L543.35-14.90L547.05-34.40L558.05-34.40L550 0Z"></path>
  </g>
</svg>
