<svg width="52" height="24" viewBox="0 0 52 24" xmlns="http://www.w3.org/2000/svg">
<mask id="mask0_765_1414" style="mask-type:luminance" maskUnits="userSpaceOnUse" x="0" y="0" width="52" height="24">
<path d="M51.3273 0H0.609375V23.9293H51.3273V0Z" fill="white"/>
</mask>
<g mask="url(#mask0_765_1414)">
<path d="M31.2023 4.57764e-05C29.8029 4.57764e-05 28.6982 1.10389 28.6982 2.50256C28.6982 3.88614 29.818 5.00587 31.2016 5.00587C32.5851 5.00587 33.7041 3.90203 33.7049 2.50256C33.7049 1.11978 32.5859 4.57764e-05 31.2023 4.57764e-05Z" fill="black"/>
<path d="M43.0441 7.17859C38.3713 7.13886 34.5758 10.9351 34.6155 15.608C34.6545 20.1449 38.3626 23.8522 42.8987 23.8904C47.5708 23.9301 51.3671 20.1346 51.3273 15.4618C51.2884 10.9248 47.5811 7.21753 43.0441 7.17859ZM43.1252 20.2387C40.4034 20.3253 38.1798 18.101 38.2664 15.3791C38.3451 12.9147 40.3525 10.9073 42.8177 10.8287C45.5395 10.742 47.7631 12.9664 47.6757 15.6883C47.597 18.1526 45.5896 20.16 43.1252 20.2379V20.2387Z" fill="black"/>
<path d="M33.1643 9.53405C33.1643 8.65908 32.6239 7.84769 31.8205 7.50279C31.5948 7.40584 31.3524 7.35577 31.1084 7.35577C31.0012 7.35577 30.8931 7.36531 30.7866 7.38517C30.4528 7.44795 30.1405 7.60531 29.887 7.831C29.5747 8.10994 29.3243 8.51603 29.2751 8.93802C29.2592 9.07789 29.2695 9.22093 29.2695 9.3616L29.2417 17.516V17.5454V18.6469C29.2417 19.0625 29.047 19.4297 28.7474 19.6752C28.5169 19.8644 28.2253 19.9828 27.905 19.9828H27.789C27.4775 19.9828 27.1937 19.8707 26.9665 19.6919C26.6557 19.4472 26.4523 19.0721 26.4523 18.6469V14.1298C26.4523 10.5068 25.4835 9.38385 25.4835 9.38385C24.4147 7.99233 22.7553 7.17855 20.4507 7.17855C17.9474 7.17855 15.9225 8.28319 14.7813 9.93934C13.714 8.24584 11.9832 7.17855 9.62765 7.17855C7.6401 7.17855 5.94659 8.17272 5.02633 9.86623V9.5714C5.02633 8.3563 4.10606 7.32637 2.81785 7.32637C1.45573 7.32637 0.609375 8.35709 0.609375 9.5714V12.3099C0.609375 13.6355 1.68461 14.7107 3.01017 14.7107H3.0801C4.09096 14.7107 4.97785 14.0718 5.33785 13.1269C5.77017 11.9905 6.69361 11.1544 8.33944 11.1544C10.6218 11.1544 11.5421 12.8472 11.5421 14.9825V21.596C11.5421 22.7666 12.4186 23.7767 13.5837 23.8824C14.8894 24.0008 15.9964 22.9653 15.9964 21.6834V14.9833C15.9964 13.0323 16.8793 11.1552 19.3095 11.1552C21.4933 11.1552 22.4279 12.7073 22.5042 14.7115V18.6485C22.5042 18.6985 22.5106 18.747 22.5114 18.7971C22.5726 20.9706 23.9498 22.8167 25.8753 23.5677C26.4698 23.7997 27.1127 23.9309 27.7882 23.9309H27.9042C28.5781 23.9309 29.2202 23.7997 29.8131 23.5693C31.6409 22.858 32.9784 21.1613 33.1636 19.1333C33.1779 18.9735 33.1882 18.8122 33.1882 18.6493L33.1636 17.5597V9.53643L33.1643 9.53405Z" fill="black"/>
</g>
</svg>
